<svg xmlns="http://www.w3.org/2000/svg" width="16" height="16" viewBox="0 0 22 22" fill="none">
    <path
        d="M4.06606 13.6002C3.34384 13.6002 2.72995 13.3474 2.2244 12.8418C1.71884 12.3363 1.46606 11.7224 1.46606 11.0002C1.46606 10.2779 1.71884 9.66405 2.2244 9.1585C2.72995 8.65294 3.34384 8.40016 4.06606 8.40016V6.66683C4.06606 6.19016 4.23579 5.78211 4.57523 5.44266C4.91468 5.10322 5.32273 4.9335 5.7994 4.9335H8.3994C8.3994 4.21127 8.65217 3.59738 9.15773 3.09183C9.66329 2.58627 10.2772 2.3335 10.9994 2.3335C11.7216 2.3335 12.3355 2.58627 12.8411 3.09183C13.3466 3.59738 13.5994 4.21127 13.5994 4.9335H16.1994C16.6761 4.9335 17.0841 5.10322 17.4236 5.44266C17.763 5.78211 17.9327 6.19016 17.9327 6.66683V8.40016C18.655 8.40016 19.2688 8.65294 19.7744 9.1585C20.28 9.66405 20.5327 10.2779 20.5327 11.0002C20.5327 11.7224 20.28 12.3363 19.7744 12.8418C19.2688 13.3474 18.655 13.6002 17.9327 13.6002V17.0668C17.9327 17.5435 17.763 17.9516 17.4236 18.291C17.0841 18.6304 16.6761 18.8002 16.1994 18.8002H5.7994C5.32273 18.8002 4.91468 18.6304 4.57523 18.291C4.23579 17.9516 4.06606 17.5435 4.06606 17.0668V13.6002ZM8.3994 11.8668C8.76051 11.8668 9.06745 11.7404 9.32023 11.4877C9.57301 11.2349 9.6994 10.9279 9.6994 10.5668C9.6994 10.2057 9.57301 9.89877 9.32023 9.646C9.06745 9.39322 8.76051 9.26683 8.3994 9.26683C8.03829 9.26683 7.73134 9.39322 7.47856 9.646C7.22579 9.89877 7.0994 10.2057 7.0994 10.5668C7.0994 10.9279 7.22579 11.2349 7.47856 11.4877C7.73134 11.7404 8.03829 11.8668 8.3994 11.8668ZM13.5994 11.8668C13.9605 11.8668 14.2675 11.7404 14.5202 11.4877C14.773 11.2349 14.8994 10.9279 14.8994 10.5668C14.8994 10.2057 14.773 9.89877 14.5202 9.646C14.2675 9.39322 13.9605 9.26683 13.5994 9.26683C13.2383 9.26683 12.9313 9.39322 12.6786 9.646C12.4258 9.89877 12.2994 10.2057 12.2994 10.5668C12.2994 10.9279 12.4258 11.2349 12.6786 11.4877C12.9313 11.7404 13.2383 11.8668 13.5994 11.8668ZM7.53273 15.3335H14.4661V13.6002H7.53273V15.3335ZM5.7994 17.0668H16.1994V6.66683H5.7994V17.0668Z"
        fill="currentColor" />
</svg>