<svg xmlns="http://www.w3.org/2000/svg" width="59" height="59" viewBox="0 0 59 59" fill="none">
    <path
        d="M25.0496 32.3884L22.481 29.8198C22.8072 29.3714 23.0314 28.9127 23.1537 28.4438C23.276 27.9749 23.3372 27.4959 23.3372 27.0066C23.3372 26.5173 23.276 26.0383 23.1537 25.5694C23.0314 25.1005 22.8072 24.6622 22.481 24.2545L25.0496 21.6248C25.7019 22.3994 26.1912 23.2556 26.5174 24.1934C26.8435 25.1311 27.0066 26.0689 27.0066 27.0066C27.0066 27.9444 26.8435 28.8719 26.5174 29.7893C26.1912 30.7066 25.7019 31.573 25.0496 32.3884ZM30.248 37.648L27.6182 35.0182C28.6375 33.8766 29.402 32.6127 29.9116 31.2265C30.4212 29.8402 30.6761 28.4336 30.6761 27.0066C30.6761 25.5796 30.4212 24.1832 29.9116 22.8173C29.402 21.4515 28.6375 20.1978 27.6182 19.0562L30.248 16.4264C31.6342 17.9349 32.6637 19.5964 33.3364 21.4107C34.0091 23.225 34.3455 25.0903 34.3455 27.0066C34.3455 28.9229 34.0091 30.7984 33.3364 32.6331C32.6637 34.4678 31.6342 36.1394 30.248 37.648ZM12.3289 29.4529C10.9834 29.4529 9.83161 28.9738 8.87348 28.0157C7.91535 27.0576 7.43629 25.9058 7.43629 24.5603C7.43629 23.2149 7.91535 22.0631 8.87348 21.1049C9.83161 20.1468 10.9834 19.6677 12.3289 19.6677C13.6743 19.6677 14.8261 20.1468 15.7843 21.1049C16.7424 22.0631 17.2215 23.2149 17.2215 24.5603C17.2215 25.9058 16.7424 27.0576 15.7843 28.0157C14.8261 28.9738 13.6743 29.4529 12.3289 29.4529ZM2.5437 39.2381V37.8314C2.5437 36.8529 2.80872 35.956 3.33875 35.1405C3.86878 34.3251 4.60266 33.7135 5.54041 33.3058C6.60047 32.8573 7.69111 32.5108 8.81233 32.2661C9.93354 32.0215 11.1057 31.8992 12.3289 31.8992C13.552 31.8992 14.7242 32.0215 15.8454 32.2661C16.9666 32.5108 18.0573 32.8573 19.1173 33.3058C20.0551 33.7135 20.789 34.3251 21.319 35.1405C21.849 35.956 22.114 36.8529 22.114 37.8314V39.2381H2.5437ZM46.577 29.4529C45.2315 29.4529 44.0797 28.9738 43.1216 28.0157C42.1634 27.0576 41.6844 25.9058 41.6844 24.5603C41.6844 23.2149 42.1634 22.0631 43.1216 21.1049C44.0797 20.1468 45.2315 19.6677 46.577 19.6677C47.9224 19.6677 49.0742 20.1468 50.0324 21.1049C50.9905 22.0631 51.4696 23.2149 51.4696 24.5603C51.4696 25.9058 50.9905 27.0576 50.0324 28.0157C49.0742 28.9738 47.9224 29.4529 46.577 29.4529ZM36.7918 39.2381V37.8314C36.7918 36.8529 37.0568 35.956 37.5868 35.1405C38.1169 34.3251 38.8508 33.7135 39.7885 33.3058C40.8486 32.8573 41.9392 32.5108 43.0604 32.2661C44.1816 32.0215 45.3538 31.8992 46.577 31.8992C47.8001 31.8992 48.9723 32.0215 50.0935 32.2661C51.2147 32.5108 52.3054 32.8573 53.3654 33.3058C54.3032 33.7135 55.0371 34.3251 55.5671 35.1405C56.0971 35.956 56.3621 36.8529 56.3621 37.8314V39.2381H36.7918Z"
        fill="white" />
</svg>