<svg xmlns="http://www.w3.org/2000/svg" width="29" height="29" viewBox="0 0 29 29" fill="none">
    <path
        d="M13.4807 25.1644V22.777H23.03V14.3021C23.03 11.9744 22.2193 9.9999 20.5979 8.37851C18.9766 6.75712 17.002 5.94642 14.6744 5.94642C12.3468 5.94642 10.3723 6.75712 8.75086 8.37851C7.12947 9.9999 6.31878 11.9744 6.31878 14.3021V21.5834H5.12512C4.4686 21.5834 3.90659 21.3496 3.43907 20.8821C2.97155 20.4146 2.73779 19.8526 2.73779 19.1961V16.8087C2.73779 16.391 2.84224 15.998 3.05113 15.63C3.26002 15.262 3.55346 14.9685 3.93145 14.7497L4.02098 13.1681C4.18013 11.8153 4.57305 10.5619 5.19972 9.40804C5.82639 8.25417 6.61222 7.2495 7.5572 6.39405C8.50218 5.53859 9.58642 4.87213 10.8099 4.39466C12.0334 3.9172 13.3216 3.67847 14.6744 3.67847C16.0272 3.67847 17.3104 3.9172 18.524 4.39466C19.7375 4.87213 20.8218 5.53362 21.7767 6.37913C22.7316 7.22464 23.5174 8.22433 24.1342 9.3782C24.7509 10.5321 25.1488 11.7854 25.3278 13.1382L25.4174 14.69C25.7953 14.869 26.0888 15.1376 26.2977 15.4957C26.5066 15.8538 26.611 16.2318 26.611 16.6297V19.3751C26.611 19.773 26.5066 20.151 26.2977 20.5091C26.0888 20.8672 25.7953 21.1358 25.4174 21.3148V22.777C25.4174 23.4336 25.1836 23.9956 24.7161 24.4631C24.2486 24.9306 23.6865 25.1644 23.03 25.1644H13.4807ZM11.0934 16.8087C10.7552 16.8087 10.4717 16.6943 10.2429 16.4656C10.0142 16.2368 9.89976 15.9533 9.89976 15.6151C9.89976 15.2769 10.0142 14.9934 10.2429 14.7646C10.4717 14.5358 10.7552 14.4214 11.0934 14.4214C11.4316 14.4214 11.7151 14.5358 11.9439 14.7646C12.1727 14.9934 12.2871 15.2769 12.2871 15.6151C12.2871 15.9533 12.1727 16.2368 11.9439 16.4656C11.7151 16.6943 11.4316 16.8087 11.0934 16.8087ZM18.2554 16.8087C17.9172 16.8087 17.6337 16.6943 17.4049 16.4656C17.1761 16.2368 17.0617 15.9533 17.0617 15.6151C17.0617 15.2769 17.1761 14.9934 17.4049 14.7646C17.6337 14.5358 17.9172 14.4214 18.2554 14.4214C18.5936 14.4214 18.8771 14.5358 19.1059 14.7646C19.3347 14.9934 19.4491 15.2769 19.4491 15.6151C19.4491 15.9533 19.3347 16.2368 19.1059 16.4656C18.8771 16.6943 18.5936 16.8087 18.2554 16.8087ZM7.54228 14.9586C7.40302 12.8498 8.03964 11.0394 9.45214 9.52741C10.8646 8.01544 12.6253 7.25945 14.7341 7.25945C16.5047 7.25945 18.0614 7.82147 19.4043 8.9455C20.7472 10.0695 21.5579 11.5069 21.8364 13.2576C20.026 13.2377 18.3598 12.7503 16.8379 11.7954C15.316 10.8404 14.1472 9.5473 13.3315 7.91596C13.0132 9.50751 12.3418 10.925 11.3172 12.1684C10.2927 13.4118 9.03436 14.3418 7.54228 14.9586Z"
        fill="white" />
</svg>