<svg xmlns="http://www.w3.org/2000/svg" width="59" height="59" viewBox="0 0 59 59" fill="none">
    <path
        d="M27.0071 51.4695V46.577H46.5775V29.2083C46.5775 24.438 44.916 20.3914 41.5931 17.0686C38.2703 13.7457 34.2237 12.0842 29.4534 12.0842C24.6831 12.0842 20.6366 13.7457 17.3137 17.0686C13.9908 20.3914 12.3294 24.438 12.3294 29.2083V44.1307H9.88306C8.5376 44.1307 7.38581 43.6516 6.42768 42.6935C5.46954 41.7353 4.99048 40.5835 4.99048 39.2381V34.3455C4.99048 33.4893 5.20453 32.6841 5.63263 31.9298C6.06073 31.1755 6.66211 30.5741 7.43677 30.1256L7.62024 26.8843C7.94642 24.1118 8.75165 21.5432 10.036 19.1785C11.3203 16.8137 12.9307 14.7548 14.8674 13.0016C16.804 11.2484 19.0261 9.88257 21.5335 8.90405C24.041 7.92554 26.6809 7.43628 29.4534 7.43628C32.2259 7.43628 34.8556 7.92554 37.3427 8.90405C39.8298 9.88257 42.0518 11.2382 44.0088 12.971C45.9659 14.7038 47.5764 16.7526 48.8403 19.1173C50.1042 21.4821 50.9196 24.0507 51.2866 26.8231L51.47 30.0033C52.2447 30.3703 52.8461 30.9207 53.2742 31.6546C53.7023 32.3885 53.9163 33.1631 53.9163 33.9786V39.605C53.9163 40.4205 53.7023 41.1951 53.2742 41.929C52.8461 42.6629 52.2447 43.2133 51.47 43.5803V46.577C51.47 47.9224 50.991 49.0742 50.0328 50.0323C49.0747 50.9905 47.9229 51.4695 46.5775 51.4695H27.0071ZM22.1145 34.3455C21.4214 34.3455 20.8404 34.1111 20.3715 33.6422C19.9027 33.1733 19.6682 32.5923 19.6682 31.8992C19.6682 31.2061 19.9027 30.6251 20.3715 30.1562C20.8404 29.6873 21.4214 29.4529 22.1145 29.4529C22.8076 29.4529 23.3886 29.6873 23.8575 30.1562C24.3264 30.6251 24.5608 31.2061 24.5608 31.8992C24.5608 32.5923 24.3264 33.1733 23.8575 33.6422C23.3886 34.1111 22.8076 34.3455 22.1145 34.3455ZM36.7923 34.3455C36.0992 34.3455 35.5182 34.1111 35.0493 33.6422C34.5804 33.1733 34.346 32.5923 34.346 31.8992C34.346 31.2061 34.5804 30.6251 35.0493 30.1562C35.5182 29.6873 36.0992 29.4529 36.7923 29.4529C37.4854 29.4529 38.0664 29.6873 38.5353 30.1562C39.0041 30.6251 39.2386 31.2061 39.2386 31.8992C39.2386 32.5923 39.0041 33.1733 38.5353 33.6422C38.0664 34.1111 37.4854 34.3455 36.7923 34.3455ZM14.8368 30.5537C14.5514 26.232 15.8561 22.5218 18.7509 19.4231C21.6457 16.3245 25.2539 14.7752 29.5757 14.7752C33.2044 14.7752 36.3948 15.927 39.1468 18.2305C41.8989 20.5341 43.5604 23.4799 44.1312 27.0678C40.421 27.027 37.0063 26.0281 33.8873 24.0711C30.7683 22.114 28.373 19.4639 26.7013 16.1206C26.049 19.3823 24.6729 22.2873 22.5732 24.8355C20.4735 27.3838 17.8947 29.2898 14.8368 30.5537Z"
        fill="white" />
</svg>