<svg xmlns="http://www.w3.org/2000/svg" width="45" height="44" viewBox="0 0 45 44" fill="none">
    <path
        d="M18.2899 30.6666C21.901 30.6666 24.9704 29.4027 27.4982 26.8749C30.026 24.3471 31.2899 21.2777 31.2899 17.6666C31.2899 14.0555 30.026 10.986 27.4982 8.45825C24.9704 5.93047 21.901 4.66659 18.2899 4.66659C14.6788 4.66659 11.6093 5.93047 9.08154 8.45825C6.55377 10.986 5.28988 14.0555 5.28988 17.6666C5.28988 21.2777 6.55377 24.3471 9.08154 26.8749C11.6093 29.4027 14.6788 30.6666 18.2899 30.6666ZM16.1232 24.1666V8.99992H20.4565V24.1666H16.1232ZM8.53988 24.1666V13.3333H12.8732V24.1666H8.53988ZM23.7065 24.1666V15.4999H28.0399V24.1666H23.7065ZM41.2565 43.6666L28.9607 31.3708C27.4802 32.5263 25.8371 33.4201 24.0315 34.052C22.226 34.6839 20.3121 34.9999 18.2899 34.9999C13.451 34.9999 9.35238 33.3208 5.99404 29.9624C2.63571 26.6041 0.956543 22.5055 0.956543 17.6666C0.956543 12.8277 2.63571 8.72909 5.99404 5.37075C9.35238 2.01242 13.451 0.333252 18.2899 0.333252C23.1288 0.333252 27.2274 2.01242 30.5857 5.37075C33.944 8.72909 35.6232 12.8277 35.6232 17.6666C35.6232 19.6888 35.3072 21.6027 34.6753 23.4083C34.0434 25.2138 33.1496 26.8569 31.994 28.3374L44.2899 40.6333L41.2565 43.6666Z"
        fill="currentColor" />
</svg>