<svg xmlns="http://www.w3.org/2000/svg" width="53" height="52" viewBox="0 0 53 52" fill="none">
    <path
        d="M25.0468 41.1667H27.2135V37.1583L34.7968 29.575V19.5H17.4635V29.575L25.0468 37.1583V41.1667ZM20.7135 45.5V39L13.1301 31.4167V19.5C13.1301 18.3083 13.5544 17.2882 14.403 16.4396C15.2517 15.591 16.2718 15.1667 17.4635 15.1667H19.6301L17.4635 17.3333V6.5H21.7968V15.1667H30.4635V6.5H34.7968V17.3333L32.6301 15.1667H34.7968C35.9885 15.1667 37.0086 15.591 37.8572 16.4396C38.7058 17.2882 39.1301 18.3083 39.1301 19.5V31.4167L31.5468 39V45.5H20.7135Z"
        fill="currentColor" />
</svg>