<svg xmlns="http://www.w3.org/2000/svg" width="17" height="16" viewBox="0 0 17 16" fill="none">
    <path
        d="M12.4999 13.3333L11.5666 12.4L12.6166 11.3333H9.83325V10H12.6166L11.5666 8.93333L12.4999 8L15.1666 10.6667L12.4999 13.3333ZM3.16659 11.3333C2.79992 11.3333 2.48603 11.2028 2.22492 10.9417C1.96381 10.6806 1.83325 10.3667 1.83325 10V3.33333C1.83325 2.96667 1.96381 2.65278 2.22492 2.39167C2.48603 2.13056 2.79992 2 3.16659 2H11.8333C12.1999 2 12.5138 2.13056 12.7749 2.39167C13.036 2.65278 13.1666 2.96667 13.1666 3.33333V6.73333C13.0555 6.71111 12.9444 6.69444 12.8333 6.68333C12.7221 6.67222 12.611 6.66667 12.4999 6.66667C12.3888 6.66667 12.2777 6.66944 12.1666 6.675C12.0555 6.68056 11.9444 6.69444 11.8333 6.71667V4.26667L7.43325 7.33333L3.16659 4.28333V10H8.54992C8.5277 10.1111 8.51381 10.2222 8.50825 10.3333C8.5027 10.4444 8.49992 10.5556 8.49992 10.6667C8.49992 10.7778 8.50547 10.8889 8.51658 11C8.5277 11.1111 8.54436 11.2222 8.56659 11.3333H3.16659ZM4.13325 3.33333L7.43325 5.7L10.8333 3.33333H4.13325Z"
        fill="currentColor" />
</svg>