<svg xmlns="http://www.w3.org/2000/svg" width="53" height="52" viewBox="0 0 53 52" fill="none">
    <path
        d="M26.8699 45.5C24.1615 45.5 21.6247 44.9854 19.2595 43.9562C16.8942 42.9271 14.8358 41.5368 13.0845 39.7854C11.3331 38.034 9.94279 35.9757 8.91362 33.6104C7.88446 31.2451 7.36987 28.7083 7.36987 26C7.36987 23.2917 7.88446 20.7549 8.91362 18.3896C9.94279 16.0243 11.3331 13.966 13.0845 12.2146C14.8358 10.4632 16.8942 9.07292 19.2595 8.04375C21.6247 7.01458 24.1615 6.5 26.8699 6.5C29.831 6.5 32.6386 7.13194 35.2928 8.39583C37.947 9.65972 40.1949 11.4472 42.0365 13.7583V8.66667H46.3699V21.6667H33.3699V17.3333H39.3282C37.8477 15.3111 36.024 13.7222 33.8574 12.5667C31.6907 11.4111 29.3615 10.8333 26.8699 10.8333C22.6449 10.8333 19.0608 12.3049 16.1178 15.2479C13.1747 18.191 11.7032 21.775 11.7032 26C11.7032 30.225 13.1747 33.809 16.1178 36.7521C19.0608 39.6951 22.6449 41.1667 26.8699 41.1667C30.6615 41.1667 33.9747 39.9389 36.8095 37.4833C39.6442 35.0278 41.3143 31.9222 41.8199 28.1667H46.2615C45.7199 33.1139 43.5983 37.2396 39.897 40.5438C36.1956 43.8479 31.8532 45.5 26.8699 45.5ZM32.9365 35.1L24.7032 26.8667V15.1667H29.0365V25.1333L35.9699 32.0667L32.9365 35.1Z"
        fill="currentColor" />
</svg>