<svg xmlns="http://www.w3.org/2000/svg" width="16" height="16" viewBox="0 0 16 16" fill="none">
    <path
        d="M6.66659 8.00008C5.93325 8.00008 5.30547 7.73897 4.78325 7.21675C4.26103 6.69453 3.99992 6.06675 3.99992 5.33341C3.99992 4.60008 4.26103 3.9723 4.78325 3.45008C5.30547 2.92786 5.93325 2.66675 6.66659 2.66675C7.39992 2.66675 8.0277 2.92786 8.54992 3.45008C9.07214 3.9723 9.33325 4.60008 9.33325 5.33341C9.33325 6.06675 9.07214 6.69453 8.54992 7.21675C8.0277 7.73897 7.39992 8.00008 6.66659 8.00008ZM1.33325 13.3334V11.4667C1.33325 11.1001 1.4277 10.7556 1.61659 10.4334C1.80547 10.1112 2.06659 9.86675 2.39992 9.70008C2.96659 9.41119 3.60547 9.16675 4.31659 8.96675C5.0277 8.76675 5.81103 8.66675 6.66659 8.66675H6.89992C6.96659 8.66675 7.03325 8.67786 7.09992 8.70008C7.01103 8.90008 6.93603 9.10841 6.87492 9.32508C6.81381 9.54175 6.76659 9.76675 6.73325 10.0001H6.66659C5.8777 10.0001 5.16936 10.1001 4.54159 10.3001C3.91381 10.5001 3.39992 10.7001 2.99992 10.9001C2.89992 10.9556 2.81936 11.0334 2.75825 11.1334C2.69714 11.2334 2.66659 11.3445 2.66659 11.4667V12.0001H6.86659C6.93325 12.2334 7.02214 12.464 7.13325 12.6917C7.24436 12.9195 7.36659 13.1334 7.49992 13.3334H1.33325ZM10.6666 14.0001L10.4666 13.0001C10.3333 12.9445 10.2083 12.8862 10.0916 12.8251C9.97492 12.764 9.85547 12.689 9.73325 12.6001L8.76659 12.9001L8.09992 11.7667L8.86659 11.1001C8.84436 10.9445 8.83325 10.8001 8.83325 10.6667C8.83325 10.5334 8.84436 10.389 8.86659 10.2334L8.09992 9.56675L8.76659 8.43341L9.73325 8.73341C9.85547 8.64453 9.97492 8.56953 10.0916 8.50841C10.2083 8.4473 10.3333 8.38897 10.4666 8.33341L10.6666 7.33341H11.9999L12.1999 8.33341C12.3333 8.38897 12.4583 8.45008 12.5749 8.51675C12.6916 8.58341 12.811 8.66675 12.9333 8.76675L13.8999 8.43341L14.5666 9.60008L13.7999 10.2667C13.8221 10.4001 13.8333 10.539 13.8333 10.6834C13.8333 10.8279 13.8221 10.9667 13.7999 11.1001L14.5666 11.7667L13.8999 12.9001L12.9333 12.6001C12.811 12.689 12.6916 12.764 12.5749 12.8251C12.4583 12.8862 12.3333 12.9445 12.1999 13.0001L11.9999 14.0001H10.6666ZM11.3333 12.0001C11.6999 12.0001 12.0138 11.8695 12.2749 11.6084C12.536 11.3473 12.6666 11.0334 12.6666 10.6667C12.6666 10.3001 12.536 9.98619 12.2749 9.72508C12.0138 9.46397 11.6999 9.33341 11.3333 9.33341C10.9666 9.33341 10.6527 9.46397 10.3916 9.72508C10.1305 9.98619 9.99992 10.3001 9.99992 10.6667C9.99992 11.0334 10.1305 11.3473 10.3916 11.6084C10.6527 11.8695 10.9666 12.0001 11.3333 12.0001ZM6.66659 6.66675C7.03325 6.66675 7.34714 6.53619 7.60825 6.27508C7.86936 6.01397 7.99992 5.70008 7.99992 5.33341C7.99992 4.96675 7.86936 4.65286 7.60825 4.39175C7.34714 4.13064 7.03325 4.00008 6.66659 4.00008C6.29992 4.00008 5.98603 4.13064 5.72492 4.39175C5.46381 4.65286 5.33325 4.96675 5.33325 5.33341C5.33325 5.70008 5.46381 6.01397 5.72492 6.27508C5.98603 6.53619 6.29992 6.66675 6.66659 6.66675Z"
        fill="currentColor" />
</svg>